<svg width="27" height="26" viewBox="0 0 27 26" fill="none" xmlns="http://www.w3.org/2000/svg">
<g id="Group 11">
<circle id="HuynhQuangThinh" cx="13.1203" cy="13.012" r="12.988" fill="#FFF0F9"/>
<circle id="HuynhQuangThinh_2" cx="13.1199" cy="13.012" r="9.86747" fill="#6439A1"/>
<path id="Vector" d="M17.4754 10.6392L13.1148 14.8679L8.75415 10.6392C8.6501 10.5383 8.52658 10.4582 8.39063 10.4036C8.25468 10.349 8.10897 10.3209 7.96183 10.3209C7.81468 10.3209 7.66897 10.349 7.53302 10.4036C7.39708 10.4582 7.27355 10.5383 7.1695 10.6392C7.06545 10.7401 6.98291 10.8599 6.9266 10.9917C6.87029 11.1235 6.84131 11.2648 6.84131 11.4075C6.84131 11.5502 6.87029 11.6915 6.9266 11.8234C6.98291 11.9552 7.06545 12.075 7.1695 12.1759L12.328 17.1785C12.7664 17.6035 13.4744 17.6035 13.9127 17.1785L19.0712 12.1759C19.1754 12.0751 19.2581 11.9553 19.3145 11.8235C19.3709 11.6916 19.3999 11.5503 19.3999 11.4075C19.3999 11.2648 19.3709 11.1235 19.3145 10.9916C19.2581 10.8598 19.1754 10.74 19.0712 10.6392C18.6329 10.225 17.9137 10.2141 17.4754 10.6392Z" fill="white"/>
</g>
</svg>
